<svg viewBox="0 0 370.1166625857813 95.21733692451245">
    <defs>
        <linearGradient id="gradient">
            <stop offset="0%" stop-color="#1C7ED6" />
            <stop offset="100%" stop-color="#22B8CF" />
        </linearGradient>
    </defs>
    <g transform="matrix(0.888833374142187,0,0,0.888833374142187,6,2.666999755146879)" fill="url(#gradient)">
        <g>
            <path d="M41.751,59.098v6.119L20,55.789v-5.232l21.751-9.427v6.162l-15.156,5.839L41.751,59.098z"/>
            <path d="M55.2,41l-6.055,24.93c-0.201,0.821-0.377,1.471-0.529,1.946c-0.151,0.476-0.382,0.849-0.691,1.112   c-0.31,0.268-0.761,0.4-1.352,0.4c-1.47,0-2.206-0.636-2.206-1.902c0-0.332,0.145-1.16,0.433-2.486l6.033-24.93   c0.317-1.326,0.619-2.234,0.907-2.724c0.289-0.49,0.851-0.735,1.688-0.735c0.721,0,1.271,0.173,1.653,0.519   c0.382,0.346,0.573,0.822,0.573,1.427C55.654,39.004,55.502,39.818,55.2,41z"/>
            <path d="M80,55.789L58.249,65.26v-6.119l15.2-5.967l-15.2-5.882v-6.076L80,50.6V55.789z"/>
        </g>
        <path d="M94,6H6c-3.313,0-6,2.687-6,6v76c0,3.313,2.687,6,6,6h88c3.314,0,6-2.688,6-6V12C100,8.686,97.314,6,94,6z M79,10  c2.205,0,4,1.794,4,4s-1.795,4-4,4s-4-1.794-4-4S76.795,10,79,10z M68,10c2.205,0,4,1.794,4,4s-1.795,4-4,4s-4-1.794-4-4  S65.795,10,68,10z M94,88H6V22h88V88z M90,18c-2.205,0-4-1.794-4-4s1.795-4,4-4s4,1.794,4,4S92.205,18,90,18z"/>
    </g>
    <g transform="matrix(2.845647246895448,0,0,2.845647246895448,103.82092220061773,6.8324110949173)">
        <path d="M3.74 5.84 l0 14.16 l-1.92 0 l0 -14.16 l1.92 0 z M11.68 10.28 c1.3733 0 2.36 0.58666 2.96 1.76 c0.30666 -0.56 0.72666 -0.99334 1.26 -1.3 s1.1133 -0.46 1.74 -0.46 c2.3866 0 3.5866 1.3733 3.6 4.12 l0 5.6 l-1.8 0 l0 -5.38 c0 -0.93334 -0.16666 -1.61 -0.5 -2.03 s-0.84668 -0.63 -1.54 -0.63 c-0.81334 0 -1.42 0.24666 -1.82 0.74 s-0.6 1.1733 -0.6 2.04 l0 5.26 l-1.8 0 l0 -5.1 c0 -1.12 -0.16 -1.89 -0.48 -2.31 s-0.82666 -0.63 -1.52 -0.63 c-0.74666 0 -1.3433 0.28666 -1.79 0.86 s-0.67 1.3 -0.67 2.18 l0 5 l-1.8 0 l0 -9.48 l1.68 0 l0 1.48 l0.04 0 c0.2 -0.46666 0.59666 -0.87 1.19 -1.21 s1.21 -0.51 1.85 -0.51 z M27.76 10.28 c1.2 0 2.15 0.27328 2.85 0.81994 s1.07 1.3067 1.11 2.28 l0 5.08 c0 0.48 0.02666 0.99334 0.08 1.54 l-1.6 0 c-0.04 -0.42666 -0.06 -0.90666 -0.06 -1.44 l-0.04 0 c-0.41334 0.61334 -0.89 1.0467 -1.43 1.3 s-1.17 0.38 -1.89 0.38 c-0.97334 0 -1.7633 -0.26 -2.37 -0.78 s-0.91 -1.2067 -0.91 -2.06 c0 -1.08 0.45334 -1.8967 1.36 -2.45 s2.1866 -0.83 3.84 -0.83 l1.34 0 l0 -0.34 c0 -0.64 -0.21 -1.1433 -0.63 -1.51 s-0.97 -0.55 -1.65 -0.55 c-0.50666 0 -0.95 0.07666 -1.33 0.23 s-0.83 0.43668 -1.35 0.85002 l-1.08 -1.12 c1.0267 -0.90666 2.28 -1.3733 3.76 -1.4 z M25.3 17.259999999999998 c0 1.0267 0.68002 1.54 2.04 1.54 c0.81334 0 1.4633 -0.24334 1.95 -0.73 s0.73666 -1.19 0.75 -2.11 l0 -0.52 l-1.02 0 c-1.1733 0 -2.0866 0.15 -2.74 0.45 s-0.98 0.75666 -0.98 1.37 z M38.7 10.28 c0.68 0 1.3133 0.13998 1.9 0.41998 s1.0533 0.67334 1.4 1.18 l0.04 0 l0 -1.36 l1.8 0 l0 9.48 c-0.01334 1.4 -0.49334 2.5466 -1.44 3.44 s-2.1934 1.3467 -3.74 1.36 c-1.96 0 -3.5066 -0.56666 -4.64 -1.7 l1.22 -1.52 c0.94666 1.0267 2.08 1.54 3.4 1.54 c1.1333 0 1.9833 -0.29 2.55 -0.87 s0.85 -1.37 0.85 -2.37 l0 -1.44 l-0.06 0 c-0.32 0.56 -0.78334 0.98 -1.39 1.26 s-1.2367 0.42 -1.89 0.42 c-1.3867 0 -2.5334 -0.46334 -3.44 -1.39 s-1.3667 -2.07 -1.38 -3.43 c0.01334 -1.52 0.47 -2.7334 1.37 -3.64 s2.05 -1.3667 3.45 -1.38 z M35.800000000000004 15.26 c0 0.94666 0.27662 1.7067 0.82996 2.28 s1.3167 0.87334 2.29 0.9 c0.96 0 1.7167 -0.28666 2.27 -0.86 s0.83668 -1.3467 0.85002 -2.32 c0 -0.98666 -0.28334 -1.78 -0.85 -2.38 s-1.33 -0.90666 -2.29 -0.92 c-0.94666 0 -1.7 0.31334 -2.26 0.94 s-0.84 1.4133 -0.84 2.36 z M50.900000000000006 10.28 c1.4533 0 2.5834 0.45664 3.39 1.37 s1.2167 2.17 1.23 3.77 l0 0.5 l-7.6 0 c0 0.77334 0.31 1.4233 0.93 1.95 s1.3767 0.79666 2.27 0.81 c0.98666 0 1.8533 -0.47334 2.6 -1.42 l1.36 1.04 c-1.0133 1.2933 -2.4134 1.94 -4.2 1.94 c-1.4533 0 -2.6234 -0.46334 -3.51 -1.39 s-1.3433 -2.1234 -1.37 -3.59 c0 -1.4133 0.45666 -2.59 1.37 -3.53 s2.09 -1.4233 3.53 -1.45 z M53.6 14.48 c-0.02666 -0.89334 -0.28 -1.5767 -0.76 -2.05 s-1.14 -0.71 -1.98 -0.71 c-0.56 0 -1.0633 0.13666 -1.51 0.41 s-0.79666 0.62668 -1.05 1.06 s-0.38 0.86334 -0.38 1.29 l5.68 0 z M60.06000000000001 5.84 l0 5.88 l7.34 0 l0 -5.88 l1.92 0 l0 14.16 l-1.92 0 l0 -6.48 l-7.34 0 l0 6.48 l-1.92 0 l0 -14.16 l1.92 0 z M74.30000000000001 10.52 l0 5.68 c0 0.74666 0.19666 1.3267 0.59 1.74 s0.91668 0.62 1.57 0.62 c0.84 0 1.49 -0.27666 1.95 -0.83 s0.69 -1.3033 0.69 -2.25 l0 -4.96 l1.8 0 l0 9.48 l-1.8 0 l0 -1.46 l-0.04 0 c-0.25334 0.53334 -0.66668 0.95 -1.24 1.25 s-1.2 0.45 -1.88 0.45 c-1.0533 0 -1.89 -0.32666 -2.51 -0.98 s-0.93 -1.5067 -0.93 -2.56 l0 -6.18 l1.8 0 z M85.42000000000002 4.880000000000001 l0.000019531 7 l0.04 0 c0.32 -0.49334 0.78334 -0.88334 1.39 -1.17 s1.2433 -0.43 1.91 -0.43 c1.4267 0 2.5866 0.47 3.48 1.41 s1.34 2.13 1.34 3.57 c0 1.4267 -0.43666 2.6066 -1.31 3.54 s-2.0366 1.4133 -3.49 1.44 c-0.65334 0 -1.2833 -0.14 -1.89 -0.42 s-1.0833 -0.67334 -1.43 -1.18 l-0.04 0 l0 1.36 l-1.8 0 l0 -15.12 l1.8 0 z M85.42000000000002 15.26 c0 0.98666 0.28338 1.7767 0.85004 2.37 s1.3233 0.90334 2.27 0.93 c0.94666 0 1.7033 -0.30666 2.27 -0.92 s0.85 -1.4067 0.85 -2.38 s-0.28 -1.7633 -0.84 -2.37 s-1.3267 -0.91666 -2.3 -0.93 c-0.94666 0 -1.7 0.31 -2.26 0.93 s-0.84 1.41 -0.84 2.37 z"/>
    </g>
</svg>